<svg width="93" height="44" fill="none" xmlns="http://www.w3.org/2000/svg"><circle cx="22" cy="22" r="22" fill="#F4DE4D"/><path d="M34.4 29.315c3.801 0 6.069-2.415 6.741-4.935l-2.31-.756c-.504 1.68-1.932 3.276-4.431 3.276-2.541 0-4.935-1.848-4.935-5.334 0-3.612 2.457-5.397 4.914-5.397 2.499 0 3.885 1.449 4.326 3.255l2.373-.798c-.672-2.604-2.919-4.83-6.699-4.83-3.864 0-7.497 2.919-7.497 7.77 0 4.851 3.507 7.749 7.518 7.749zm11.545-3.087c0 1.617 1.323 3.087 3.465 3.087 1.659 0 2.667-.84 3.15-1.617 0 .819.084 1.239.105 1.302h2.268c-.021-.105-.126-.714-.126-1.638V22.28c0-2.037-1.197-3.822-4.347-3.822-2.52 0-4.116 1.575-4.305 3.339l2.226.504c.105-1.029.819-1.848 2.1-1.848 1.344 0 1.932.693 1.932 1.554 0 .357-.168.651-.756.735l-2.625.399c-1.743.252-3.087 1.26-3.087 3.087zm3.927 1.176c-.966 0-1.491-.63-1.491-1.323 0-.84.609-1.26 1.365-1.386l2.667-.399v.462c0 1.995-1.176 2.646-2.541 2.646zm10.295 5.586v-5.145c.525.777 1.638 1.407 3.108 1.407 2.94 0 4.809-2.31 4.809-5.376 0-3.024-1.701-5.334-4.725-5.334-1.575 0-2.751.735-3.255 1.617v-1.386h-2.352V32.99h2.415zm5.48-9.114c0 1.953-1.133 3.213-2.75 3.213-1.596 0-2.751-1.26-2.751-3.213 0-1.911 1.155-3.171 2.75-3.171 1.639 0 2.752 1.26 2.752 3.171zm6.48-1.113c.084-1.092.966-2.268 2.499-2.268 1.68 0 2.478 1.071 2.52 2.268h-5.02zm5.292 2.667c-.336 1.008-1.092 1.785-2.562 1.785-1.512 0-2.73-1.113-2.793-2.667h7.476c.02-.042.063-.378.063-.777 0-3.234-1.848-5.313-4.998-5.313-2.583 0-4.977 2.142-4.977 5.376 0 3.465 2.457 5.481 5.229 5.481 2.457 0 4.074-1.449 4.62-3.234l-2.058-.651zm6.15-1.575c0-1.953 1.175-3.192 2.772-3.192 1.596 0 2.688 1.218 2.688 3.171 0 1.953-1.114 3.276-2.71 3.276-1.659 0-2.75-1.302-2.75-3.255zm7.811-10.059h-2.373v6.174c-.315-.651-1.218-1.47-3.003-1.47-2.877 0-4.872 2.415-4.872 5.355 0 3.087 1.974 5.397 4.914 5.397 1.45 0 2.52-.714 3.003-1.575 0 .42.063 1.092.105 1.323h2.332a16.766 16.766 0 01-.106-1.869V13.796zM69 13h12v3H69z" fill="#000"/></svg>